# xmcd CD database file
#
# Track frame offsets:
#	150
#	14335
#	33123
#	53999
#	74025
#	94211
#	129439
#	152069
#	178029
#	194981
#	219116
#	240708
#
# Disc length: 3703 seconds
#
# Revision: 0
# Processed by: cddbd v1.5.2PL0 Copyright (c) Steve Scherf et al.
# Submitted via: CDex 1.70beta2
#
DISCID=ab0e750c
DTITLE=Selmer #607 - Selmer #607 invite Stochelo Rosenberg
DYEAR=1900
DGENRE=Jazz
TTITLE0=Adrien Moignard -  Blue Moon
TTITLE1=Stochelo Rosenberg - Tears
TTITLE2=No￩ Reinhardt - Love for sale
TTITLE3=S￩bastien Giniaux - Tutu
TTITLE4=Richard Manetti - Laura
TTITLE5=Beno￮t Convert - Spain
TTITLE6=No￩ Reinhardt - Cimeti￨re des El￩phants
TTITLE7=Adrien Moignard - Two for the road
TTITLE8=Stochelo Rosenberg - Embraceable you
TTITLE9=Beno￮t Convert - Anouman
TTITLE10=Richad Manetti - London
TTITLE11=S￩bastien Giniaux - 2￨me Concerto en sol pour Piano
EXTD=
EXTT0=
EXTT1=
EXTT2=
EXTT3=
EXTT4=
EXTT5=
EXTT6=
EXTT7=
EXTT8=
EXTT9=
EXTT10=
EXTT11=
PLAYORDER=
